<?xml version="1.0" encoding="UTF-8"?><svg id="Ebene_2" xmlns="http://www.w3.org/2000/svg" viewBox="0 0 148.34 148.34"><defs><style>.cls-1{fill:#1d1d1b;}.cls-2{fill:#fff;}</style></defs><g id="Ebene_1-2"><circle class="cls-1" cx="74.17" cy="74.17" r="74.17"/><path class="cls-2" d="M30.39,71.54c-4.11,0-7.99-1.82-7.99-6.29s3.86-6.29,7.99-6.29,7.97,1.84,7.97,6.29-3.84,6.29-7.97,6.29ZM30.39,60.46c-3.44,0-6.06,1.59-6.06,4.78s2.62,4.78,6.06,4.78,6.02-1.56,6.02-4.78-2.6-4.78-6.02-4.78Z"/><path class="cls-2" d="M44.95,71.22h-3.29v-11.94h3.42c1.67,0,3.37.8,3.37,2.67,0,1.36-1.03,2.32-1.91,2.5,1.38.3,2.36,1.38,2.36,2.96,0,2.21-1.49,3.81-3.93,3.81ZM44.79,60.78h-1.47v3.05h1.47c1.15,0,1.95-.6,1.95-1.63s-.9-1.42-1.95-1.42ZM44.68,65.27h-1.36v4.45h1.38c1.49,0,2.44-.89,2.44-2.36s-1.03-2.09-2.46-2.09Z"/><path class="cls-2" d="M52.23,71.22v-11.94h6.02v1.52h-4.36v3.08h4.36v1.45h-4.36v4.36h4.36v1.52h-6.02Z"/><path class="cls-2" d="M66.95,71.22l-2.71-5.07h-.92v5.07h-1.67v-11.94h3.31c2.13,0,3.61,1.22,3.61,3.35,0,1.72-1.21,2.91-2.69,3.21l2.99,5.39h-1.93ZM64.74,60.78h-1.42v3.93h.9c1.51,0,2.66-.57,2.66-2.09,0-1.19-.9-1.84-2.14-1.84Z"/><path class="cls-2" d="M72.18,71.33c-.39,0-.78-.02-1.22-.05l.09-1.61c.41.05.85.11,1.2.11,1.88,0,3.12-.67,3.12-1.77,0-.85-.58-1.42-2.04-2.41-1.15-.76-2.37-1.75-2.37-3.29,0-1.7,1.4-3.12,4.41-3.12.48,0,.87.02,1.35.09l-.09,1.58c-.42-.07-.85-.11-1.31-.11-1.59,0-2.64.48-2.64,1.38s.81,1.4,1.95,2.18c1.31.9,2.48,1.93,2.48,3.56,0,2.14-1.95,3.47-4.92,3.47Z"/><path class="cls-2" d="M85.23,71.22l-.64-2.67h-3.21l-.64,2.67h-1.72l3.1-12.17h1.75l3.1,12.17h-1.75ZM83.75,58.73l-3.35-1.12.39-1.15,3.28,1.33-.32.94ZM82.98,61.56l-1.28,5.47h2.55l-1.28-5.47Z"/><path class="cls-2" d="M94.75,71.22l-2-4.43-2.09,4.43h-1.83l2.98-6.04-2.87-5.9h1.9l1.95,4.34,2-4.34h1.83l-2.91,5.9,2.96,6.04h-1.91Z"/><path class="cls-2" d="M99.62,71.22v-11.94h6.02v1.52h-4.36v3.08h4.36v1.45h-4.36v4.36h4.36v1.52h-6.02Z"/><path class="cls-2" d="M120.35,71.22l-4.8-5.07h-4.68v5.07h-1.82v-11.94h10.12c2.05,0,3.79,1.12,3.79,3.35s-1.7,3.49-3.77,3.49h-1.33l4.96,5.1h-2.46ZM118.77,60.85h-7.9v3.79h8.06c1.01,0,2.21-.46,2.21-1.98,0-1.21-1.03-1.81-2.37-1.81Z"/><path class="cls-2" d="M47.81,83.2v9.28h-3.31v-9.28h-6.66v-2.66h16.63v2.66h-6.66Z"/><path class="cls-2" d="M56.95,92.48v-11.94h3.03v11.94h-3.03Z"/><path class="cls-2" d="M67.94,83.09v9.39h-3.03v-9.39h-2.43v-2.55h7.88v2.55h-2.43Z"/><path class="cls-2" d="M73.55,92.6c-.48,0-.96-.02-1.49-.05l.12-2.6c.51.09,1.15.16,1.63.16,1.82,0,2.43-.48,2.43-1.04s-.48-.96-1.79-1.72c-1.4-.78-2.46-1.77-2.46-3.4,0-2.09,1.77-3.53,5.19-3.53.57,0,1.13.04,1.72.11l-.12,2.55c-.53-.09-1.13-.14-1.72-.14-1.52,0-2.02.3-2.02.76,0,.55.57.85,1.68,1.51,1.52.85,2.57,1.81,2.57,3.58,0,2.5-2.23,3.83-5.74,3.83Z"/><path class="cls-2" d="M87.02,92.6c-3.81,0-5.74-2.78-5.74-6.25,0-3.72,2.23-5.93,5.88-5.93.41,0,.82.02,1.29.07l-.18,2.52c-.19-.02-.41-.02-.57-.02-2.34,0-3.31,1.42-3.31,3.37s1.08,3.7,3.26,3.7c.2,0,.37,0,.57-.02l.14,2.52c-.44.02-.9.05-1.35.05Z"/><path class="cls-2" d="M103.56,92.48v-5.17h-9.16v5.17h-3.33v-11.94h3.33v4.15h9.16v-4.15h3.33v11.94h-3.33Z"/></g></svg>