<?xml version="1.0" encoding="UTF-8"?><svg id="Ebene_2" xmlns="http://www.w3.org/2000/svg" viewBox="0 0 157.4 102.17"><defs><style>.cls-1{fill:#1d1d1b;}.cls-2{fill:none;stroke:#fff;stroke-miterlimit:10;stroke-width:.75px;}.cls-3{fill:#fff;}</style></defs><g id="Ebene_1-2"><rect class="cls-1" width="157.4" height="102.17"/><path class="cls-3" d="M81.8,73.36c-7.3,11.57-20.24,19.27-34.99,19.27-22.79,0-41.27-18.38-41.27-41.05S24.01,10.53,46.81,10.53s41.27,18.38,41.27,41.05c0,8-2.3,15.47-6.28,21.78"/><path class="cls-1" d="M81.21,74.76c-6.65,9.9-17.98,16.42-30.85,16.42-20.47,0-37.07-16.5-37.07-36.86S29.89,17.46,50.36,17.46s37.07,16.5,37.07,36.86c0,7.56-2.29,14.59-6.22,20.44"/><path class="cls-3" d="M41.37,46.21l2.18,1.09,2.18,6.54-1.09,2.18,2.18,1.09,2.32,6.97-1.09,2.18-8.52,2.84-6.68-20.05,8.52-2.84ZM42.03,55.13l.24-.52-1.42-4.25-.5-.27-3.06,1.02,1.68,5.04,3.06-1.02ZM43.11,58.38l-3.06,1.02,1.77,5.3,3.06-1.02.24-.52-1.51-4.54-.49-.25Z"/><path class="cls-3" d="M61.78,55.37l-3.43,1.14.45,3.85-2.86.95-1.61-18.03,2.73-.91,9.52,15.39-2.86.95-1.95-3.36ZM60.33,52.84l-3.04-5.24.71,6.02,2.33-.78Z"/><path class="cls-3" d="M82.31,52.67l-7.67,2.56-5.57-16.71,2.81-.94,4.67,14,4.86-1.62.9,2.7Z"/><path class="cls-3" d="M101.37,45.97l-8.38,2.79-.9-2.7,1.67-13.11-5.43,1.81-.9-2.7,8.38-2.79.9,2.7-1.67,13.11,5.43-1.81.9,2.7Z"/><path class="cls-3" d="M108.44,44.05l-5.57-16.71,8-2.67.9,2.7-5.21,1.74,1.38,4.16,3.87-1.29.9,2.7-3.87,1.29,1.48,4.44,5.21-1.74.9,2.7-8,2.67Z"/><path class="cls-3" d="M123.86,38.19l-5.57-16.71,7.21-2.4,1.82.91,2.49,7.47-.91,1.82,3.53,6.05-2.75.92-3.53-6.05-1.67.56,2.17,6.51-2.79.93ZM126.27,27.15l.2-.43-1.38-4.13-.41-.21-2.68.89,1.59,4.77,2.68-.89Z"/><line class="cls-2" x1="38.75" y1="57.94" x2="144.09" y2="22.08"/><line class="cls-2" x1="34.52" y1="53.77" x2="145.71" y2="15.91"/><line class="cls-2" x1="39.17" y1="63.14" x2="142.24" y2="28.04"/></g></svg>